<?xml version="1.0" standalone="no"?>
<!DOCTYPE svg PUBLIC "-//W3C//DTD SVG 20010904//EN"
 "http://www.w3.org/TR/2001/REC-SVG-20010904/DTD/svg10.dtd">
<svg version="1.0" xmlns="http://www.w3.org/2000/svg"
 width="228.000000pt" height="228.000000pt" viewBox="0 0 228.000000 228.000000"
 preserveAspectRatio="xMidYMid meet">
<metadata>
Created by potrace 1.11, written by Peter Selinger 2001-2013
</metadata>
<g transform="translate(0.000000,228.000000) scale(0.100000,-0.100000)"
fill="#000000" stroke="none">
<path d="M1370 2276 c0 -2 7 -23 15 -46 17 -49 15 -56 -13 -41 -46 25 -126 35
-284 35 -91 1 -164 -1 -162 -4 3 -2 -24 -12 -58 -22 -80 -23 -78 -23 -111 -36
-16 -7 -33 -12 -38 -12 -5 0 -9 -4 -9 -9 0 -8 -25 -19 -55 -25 -27 -6 -141
-60 -165 -79 -8 -7 -27 -28 -41 -47 -15 -19 -47 -57 -73 -84 -25 -26 -46 -53
-46 -59 0 -6 -9 -29 -19 -51 -35 -73 -63 -179 -69 -261 -7 -95 -5 -395 3 -445
3 -19 5 -102 4 -185 -1 -323 8 -580 21 -605 10 -18 9 -24 -1 -31 -8 -5 -18 -9
-22 -9 -5 0 -5 -4 -2 -10 3 -5 2 -10 -4 -10 -9 0 -21 -24 -21 -43 0 -4 -7 -21
-15 -37 -9 -17 -14 -30 -11 -30 2 0 -1 -21 -8 -48 -23 -91 -128 -82 949 -82
l953 0 5 32 c7 47 -3 334 -18 466 -13 121 -15 156 -21 332 -3 102 -6 192 -6
200 3 58 1 326 -3 423 -6 133 -27 202 -116 385 -45 91 -67 122 -156 215 -28
29 -152 85 -227 102 -38 8 -75 20 -81 25 -7 6 -11 30 -10 55 l2 45 -43 0 c-24
0 -44 -2 -44 -4z"/>
<path d="M1890 2270 c0 -5 5 -10 10 -10 6 0 10 5 10 10 0 6 -4 10 -10 10 -5 0
-10 -4 -10 -10z"/>
</g>
</svg>
